<?xml version="1.0" encoding="utf-8"?>
<!-- Generator: Adobe Illustrator 21.1.0, SVG Export Plug-In . SVG Version: 6.00 Build 0)  -->
<svg version="1.1" id="Layer_1" xmlns="http://www.w3.org/2000/svg" xmlns:xlink="http://www.w3.org/1999/xlink" x="0px" y="0px"
	 width="500px" height="500px" viewBox="0 0 500 500" style="enable-background:new 0 0 500 500;" xml:space="preserve">
<style type="text/css">
	.st0{fill:#FFFFFF;stroke:#000000;stroke-miterlimit:10;}
	.st1{fill:#FFFFFF;stroke:#020202;stroke-miterlimit:10;}
	.st2{fill:none;stroke:#000000;stroke-width:4;stroke-miterlimit:10;}
	.st3{fill:#45EDA1;stroke:#000000;stroke-width:3;stroke-miterlimit:10;}
	.st4{fill:#F9F9F9;stroke:#000000;stroke-width:3;stroke-miterlimit:10;}
</style>
<g>
	<path class="st0" d="M285,159.4c0,2.7-1.1,5.5-2.6,7.7l-20.9,0.2c-1.7-2.2-2.8-4.9-2.8-7.9c0-7.1,5.8-12.8,13.1-12.8
		C279.2,146.6,285,152.3,285,159.4z"/>
	<path d="M269.9,152.3c-0.9,0-1.7,0.9-1.7,1.6c0,0.7,0.9,1.6,1.7,1.6c0.9,0,1.7-0.9,1.7-1.6S270.8,152.3,269.9,152.3L269.9,152.3
		l1.9-0.5c3,0,5.4,2.4,5.4,5.2c0,2.7-2.6,5.2-5.4,5.2s-5.4-2.4-5.4-5.2c0-2.7,2.6-5.2,5.4-5.2"/>
</g>
<g>
	<path class="st1" d="M244,159.1c0,2.7-1.1,5.5-2.6,7.7l-20.9,0.2c-1.7-2.2-2.8-4.9-2.8-7.9c0-7.1,5.8-12.8,13.1-12.8
		S244,152,244,159.1z"/>
	<path d="M228.9,152c-0.9,0-1.7,0.9-1.7,1.6c0,0.7,0.9,1.6,1.7,1.6s1.7-0.9,1.7-1.6C230.8,152.8,230,152,228.9,152L228.9,152
		l1.9-0.5c3,0,5.4,2.4,5.4,5.2c0,2.7-2.6,5.2-5.4,5.2c-2.8,0-5.4-2.4-5.4-5.2c0-2.7,2.6-5.2,5.4-5.2"/>
</g>
<path class="st2" d="M219.1,230.8c-7.9-1.7-15.7,3.7-21.9,9c-12.8,11.1-24.1,24.2-33.6,38.6"/>
<path class="st2" d="M278.4,230.8c7.8-1.7,15.3,3.7,21.4,9c12.5,11.1,23.5,24.2,32.8,38.6"/>
<polyline class="st3" points="250,331.8 311.4,170.5 312,169 312.3,168.3 311,168.3 309.6,168.3 306.5,168.3 301.3,168.3 
	298.7,168.3 295.8,168.3 291.8,168.3 285.8,168.3 280.5,168.3 269.2,168.3 256.8,168.3 244,168.3 230.8,168.3 215,168.3 
	198.7,168.3 191.9,168.3 191.2,168.3 190.3,168.3 250,331.8 "/>
<ellipse class="st4" cx="251.3" cy="205" rx="8.3" ry="16.3"/>
</svg>
